<svg width="2677" height="1870" viewBox="0 0 2677 1870" fill="none" xmlns="http://www.w3.org/2000/svg">
<path fill-rule="evenodd" clip-rule="evenodd" d="M913 436.06C913 197.171 1105.02 6.42853e-05 1341.34 8.49457e-05C1573.98 0.000105284 1766 197.171 1766 436.06C1766 697.696 1503.05 888.74 1341.34 1159C1179.47 901.4 913 709.075 913 436.06Z" fill="url(#paint0_linear_1037_191)"/>
<path d="M0 1730.82L76.7275 1341.11H148.942L237.517 1571.04L326.092 1341.11H398.306L475.034 1730.82H388.715L347.53 1520.38L266.854 1730.82H208.18L127.503 1520.38L86.3184 1730.82H0Z" fill="#00A878"/>
<path d="M711.616 1452.46H796.242V1730.82H711.334L707.385 1705.77C700.426 1715.42 691.588 1723.21 680.868 1729.15C670.337 1735.09 658.019 1738.06 643.915 1738.06C622.853 1738.06 603.107 1734.16 584.677 1726.37C566.435 1718.57 550.356 1707.81 536.44 1694.08C522.524 1680.16 511.617 1664.2 503.718 1646.2C496.008 1628.01 492.153 1608.53 492.153 1587.74C492.153 1567.89 495.82 1549.33 503.154 1532.07C510.488 1514.81 520.737 1499.69 533.901 1486.7C547.253 1473.52 562.58 1463.22 579.881 1455.8C597.371 1448.38 616.083 1444.66 636.017 1444.66C652.19 1444.66 666.858 1448 680.022 1454.68C693.374 1461.18 705.222 1469.35 715.565 1479.18L711.616 1452.46ZM641.658 1657.89C653.318 1657.89 663.943 1654.92 673.534 1648.98C683.125 1643.04 690.741 1635.06 696.383 1625.04C702.025 1615.02 704.846 1603.89 704.846 1591.64C704.846 1579.39 702.025 1568.26 696.383 1558.24C690.741 1548.21 683.125 1540.23 673.534 1534.3C663.943 1528.36 653.318 1525.39 641.658 1525.39C629.999 1525.39 619.374 1528.36 609.783 1534.3C600.38 1540.23 592.857 1548.21 587.216 1558.24C581.762 1568.26 579.035 1579.39 579.035 1591.64C579.035 1603.89 581.856 1615.02 587.498 1625.04C593.14 1635.06 600.662 1643.04 610.065 1648.98C619.656 1654.92 630.187 1657.89 641.658 1657.89Z" fill="#00A878"/>
<path d="M937.497 1870H852.871V1452.46H937.497V1478.62C946.335 1468.79 956.584 1460.81 968.244 1454.68C979.904 1448.38 993.35 1445.22 1008.58 1445.22C1029.27 1445.22 1048.54 1449.02 1066.41 1456.63C1084.28 1464.24 1099.98 1474.82 1113.52 1488.37C1127.25 1501.73 1137.87 1517.22 1145.39 1534.85C1153.1 1552.48 1156.96 1571.41 1156.96 1591.64C1156.96 1611.87 1153.1 1630.89 1145.39 1648.7C1137.87 1666.52 1127.25 1682.2 1113.52 1695.75C1099.98 1709.11 1084.28 1719.59 1066.41 1727.2C1048.54 1734.81 1029.27 1738.61 1008.58 1738.61C993.35 1738.61 979.904 1735.46 968.244 1729.15C956.584 1722.84 946.335 1714.86 937.497 1705.21V1870ZM1007.45 1525.39C995.982 1525.39 985.451 1528.45 975.86 1534.57C966.457 1540.51 958.935 1548.49 953.293 1558.51C947.652 1568.53 944.831 1579.58 944.831 1591.64C944.831 1603.89 947.652 1615.02 953.293 1625.04C958.935 1635.06 966.457 1643.04 975.86 1648.98C985.451 1654.92 995.982 1657.89 1007.45 1657.89C1019.11 1657.89 1029.74 1654.92 1039.33 1648.98C1048.92 1643.04 1056.54 1635.06 1062.18 1625.04C1067.82 1615.02 1070.64 1603.89 1070.64 1591.64C1070.64 1579.58 1067.82 1568.53 1062.18 1558.51C1056.54 1548.49 1048.92 1540.51 1039.33 1534.57C1029.74 1528.45 1019.11 1525.39 1007.45 1525.39Z" fill="#00A878"/>
<path d="M1284.04 1870H1199.42V1452.46H1284.04V1478.62C1292.88 1468.79 1303.13 1460.81 1314.79 1454.68C1326.45 1448.38 1339.9 1445.22 1355.13 1445.22C1375.82 1445.22 1395.09 1449.02 1412.96 1456.63C1430.82 1464.24 1446.53 1474.82 1460.07 1488.37C1473.79 1501.73 1484.42 1517.22 1491.94 1534.85C1499.65 1552.48 1503.51 1571.41 1503.51 1591.64C1503.51 1611.87 1499.65 1630.89 1491.94 1648.7C1484.42 1666.52 1473.79 1682.2 1460.07 1695.75C1446.53 1709.11 1430.82 1719.59 1412.96 1727.2C1395.09 1734.81 1375.82 1738.61 1355.13 1738.61C1339.9 1738.61 1326.45 1735.46 1314.79 1729.15C1303.13 1722.84 1292.88 1714.86 1284.04 1705.21V1870ZM1354 1525.39C1342.53 1525.39 1332 1528.45 1322.41 1534.57C1313 1540.51 1305.48 1548.49 1299.84 1558.51C1294.2 1568.53 1291.38 1579.58 1291.38 1591.64C1291.38 1603.89 1294.2 1615.02 1299.84 1625.04C1305.48 1635.06 1313 1643.04 1322.41 1648.98C1332 1654.92 1342.53 1657.89 1354 1657.89C1365.66 1657.89 1376.29 1654.92 1385.88 1648.98C1395.47 1643.04 1403.08 1635.06 1408.73 1625.04C1414.37 1615.02 1417.19 1603.89 1417.19 1591.64C1417.19 1579.58 1414.37 1568.53 1408.73 1558.51C1403.08 1548.49 1395.47 1540.51 1385.88 1534.57C1376.29 1528.45 1365.66 1525.39 1354 1525.39Z" fill="#00A878"/>
<path d="M1672.84 1738.06C1646.89 1738.06 1623.19 1731.47 1601.75 1718.29C1580.5 1705.12 1563.48 1687.39 1550.69 1665.13C1538.1 1642.86 1531.8 1618.27 1531.8 1591.36C1531.8 1571.13 1535.46 1552.2 1542.8 1534.57C1550.13 1516.76 1560.19 1501.17 1572.98 1487.81C1585.96 1474.26 1601 1463.69 1618.11 1456.08C1635.23 1448.47 1653.47 1444.66 1672.84 1444.66C1695.41 1444.66 1716 1449.58 1734.62 1459.42C1753.42 1469.07 1769.22 1482.24 1782.01 1498.94C1794.98 1515.46 1804.2 1534.11 1809.65 1554.89C1815.1 1575.68 1815.67 1597.11 1811.34 1619.2H1623.19C1625.82 1625.69 1629.3 1631.63 1633.63 1637.01C1638.14 1642.21 1643.6 1646.38 1649.99 1649.54C1656.57 1652.69 1664.19 1654.36 1672.84 1654.55C1681.11 1654.73 1688.73 1652.97 1695.69 1649.26C1702.83 1645.55 1709.04 1640.54 1714.31 1634.23L1800.62 1653.99C1789.15 1678.67 1772.04 1698.9 1749.28 1714.67C1726.53 1730.26 1701.05 1738.06 1672.84 1738.06ZM1620.09 1557.96H1725.87C1723.24 1549.98 1719.29 1542.93 1714.02 1536.8C1708.76 1530.68 1702.55 1525.85 1695.41 1522.33C1688.45 1518.8 1680.92 1517.04 1672.84 1517.04C1664.94 1517.04 1657.42 1518.8 1650.27 1522.33C1643.31 1525.85 1637.2 1530.68 1631.94 1536.8C1626.86 1542.93 1622.91 1549.98 1620.09 1557.96Z" fill="#00A878"/>
<path d="M2014.05 1535.97H1966.1V1730.82H1881.47V1535.97H1844.8V1452.46H1881.47V1365.05H1966.1V1452.46H2014.05V1535.97Z" fill="#00A878"/>
<path d="M2058.9 1452.46H2143.53V1730.82H2058.9V1452.46ZM2101.78 1423.51C2089.55 1423.51 2079.3 1419.52 2071.03 1411.54C2062.76 1403.56 2058.62 1393.63 2058.62 1381.75C2058.62 1370.06 2062.76 1360.23 2071.03 1352.25C2079.3 1344.08 2089.46 1340 2101.5 1340C2113.34 1340 2123.31 1344.08 2131.4 1352.25C2139.67 1360.23 2143.81 1370.06 2143.81 1381.75C2143.81 1393.63 2139.76 1403.56 2131.68 1411.54C2123.78 1419.52 2113.81 1423.51 2101.78 1423.51Z" fill="#00A878"/>
<path d="M2366.11 1535.97H2318.16V1730.82H2233.53V1535.97H2196.86V1452.46H2233.53V1365.05H2318.16V1452.46H2366.11V1535.97Z" fill="#00A878"/>
<path d="M2535.63 1738.06C2509.67 1738.06 2485.98 1731.47 2464.54 1718.29C2443.29 1705.12 2426.27 1687.39 2413.48 1665.13C2400.88 1642.86 2394.58 1618.27 2394.58 1591.36C2394.58 1571.13 2398.25 1552.2 2405.58 1534.57C2412.92 1516.76 2422.98 1501.17 2435.77 1487.81C2448.74 1474.26 2463.79 1463.69 2480.9 1456.08C2498.01 1448.47 2516.26 1444.66 2535.63 1444.66C2558.19 1444.66 2578.79 1449.58 2597.4 1459.42C2616.21 1469.07 2632.01 1482.24 2644.79 1498.94C2657.77 1515.46 2666.98 1534.11 2672.44 1554.89C2677.89 1575.68 2678.46 1597.11 2674.13 1619.2H2485.98C2488.61 1625.69 2492.09 1631.63 2496.42 1637.01C2500.93 1642.21 2506.38 1646.38 2512.78 1649.54C2519.36 1652.69 2526.98 1654.36 2535.63 1654.55C2543.9 1654.73 2551.52 1652.97 2558.47 1649.26C2565.62 1645.55 2571.83 1640.54 2577.09 1634.23L2663.41 1653.99C2651.94 1678.67 2634.83 1698.9 2612.07 1714.67C2589.32 1730.26 2563.83 1738.06 2535.63 1738.06ZM2482.88 1557.96H2588.66C2586.03 1549.98 2582.08 1542.93 2576.81 1536.8C2571.54 1530.68 2565.34 1525.85 2558.19 1522.33C2551.23 1518.8 2543.71 1517.04 2535.63 1517.04C2527.73 1517.04 2520.21 1518.8 2513.06 1522.33C2506.1 1525.85 2499.99 1530.68 2494.72 1536.8C2489.65 1542.93 2485.7 1549.98 2482.88 1557.96Z" fill="#00A878"/>
<defs>
<linearGradient id="paint0_linear_1037_191" x1="1339.06" y1="-2.96702" x2="1339.06" y2="1160.38" gradientUnits="userSpaceOnUse">
<stop offset="0.149038" stop-color="#00D4A0"/>
<stop offset="0.620192" stop-color="#00A878"/>
<stop offset="1" stop-color="#6A4FF0"/>
</linearGradient>
</defs>
</svg>
