<svg width="2516" height="435" viewBox="0 0 2516 435" fill="none" xmlns="http://www.w3.org/2000/svg">
<path d="M0 320.767L62.1593 0.913854H120.662L192.42 189.627L264.177 0.913854H322.68L384.839 320.767H314.91L281.545 148.046L216.187 320.767H168.653L103.294 148.046L69.9293 320.767H0Z" fill="#00A878"/>
<path d="M576.502 92.3004H645.06V320.767H576.274L573.074 300.205C567.437 308.125 560.277 314.522 551.593 319.396C543.061 324.27 533.082 326.707 521.656 326.707C504.592 326.707 488.595 323.508 473.665 317.111C458.887 310.714 445.861 301.88 434.587 290.609C423.313 279.186 414.477 266.087 408.078 251.313C401.831 236.387 398.708 220.394 398.708 203.335C398.708 187.038 401.679 171.807 407.621 157.642C413.562 143.477 421.866 131.064 432.53 120.402C443.347 109.588 455.764 101.134 469.78 95.042C483.949 88.9496 499.108 85.9034 515.257 85.9034C528.359 85.9034 540.243 88.645 550.907 94.1281C561.724 99.459 571.322 106.161 579.702 114.233L576.502 92.3004ZM519.827 260.909C529.273 260.909 537.881 258.472 545.651 253.598C553.421 248.724 559.591 242.174 564.162 233.95C568.732 225.725 571.018 216.586 571.018 206.534C571.018 196.481 568.732 187.342 564.162 179.118C559.591 170.893 553.421 164.343 545.651 159.47C537.881 154.596 529.273 152.159 519.827 152.159C510.382 152.159 501.774 154.596 494.004 159.47C486.386 164.343 480.292 170.893 475.722 179.118C471.304 187.342 469.094 196.481 469.094 206.534C469.094 216.586 471.38 225.725 475.95 233.95C480.521 242.174 486.615 248.724 494.232 253.598C502.002 258.472 510.534 260.909 519.827 260.909Z" fill="#00A878"/>
<path d="M690.937 92.3004H759.495V320.767H690.937V92.3004ZM725.673 68.5399C715.77 68.5399 707.467 65.2652 700.764 58.7159C694.06 52.1665 690.709 44.0178 690.709 34.2699C690.709 24.6744 694.06 16.6019 700.764 10.0525C707.467 3.35084 715.694 0 725.445 0C735.043 0 743.117 3.35084 749.668 10.0525C756.372 16.6019 759.724 24.6744 759.724 34.2699C759.724 44.0178 756.448 52.1665 749.897 58.7159C743.498 65.2652 735.424 68.5399 725.673 68.5399Z" fill="#00A878"/>
<path d="M811.449 320.767V92.3004H880.007V106.694C887.625 100.144 896.309 95.042 906.06 91.3865C915.81 87.7311 926.094 85.9034 936.911 85.9034C952.146 85.9034 966.162 89.4065 978.96 96.4128C991.757 103.267 1002.12 112.482 1010.04 124.057C1018.11 112.482 1028.47 103.267 1041.12 96.4128C1053.92 89.4065 1067.86 85.9034 1082.94 85.9034C1099.39 85.9034 1114.32 89.9396 1127.73 98.0121C1141.14 105.932 1151.8 116.594 1159.72 129.997C1167.8 143.401 1171.84 158.327 1171.84 174.777V320.767H1103.28V193.968C1103.28 186.809 1101.53 180.336 1098.02 174.548C1094.52 168.76 1089.87 164.115 1084.08 160.612C1078.29 157.109 1071.82 155.357 1064.66 155.357C1057.5 155.357 1050.95 157.109 1045 160.612C1039.21 164.115 1034.57 168.76 1031.06 174.548C1027.56 180.336 1025.81 186.809 1025.81 193.968V320.767H957.25V193.968C957.25 186.809 955.497 180.336 951.993 174.548C948.642 168.76 943.995 164.115 938.053 160.612C932.264 157.109 925.789 155.357 918.628 155.357C911.62 155.357 905.145 157.109 899.204 160.612C893.414 164.115 888.768 168.76 885.264 174.548C881.759 180.336 880.007 186.809 880.007 193.968V320.767H811.449Z" fill="#00A878"/>
<path d="M1313.71 326.707C1292.68 326.707 1273.49 321.3 1256.12 310.486C1238.9 299.672 1225.12 285.202 1214.76 267.077C1204.55 248.8 1199.45 228.619 1199.45 206.534C1199.45 189.779 1202.42 174.168 1208.36 159.698C1214.3 145.076 1222.45 132.282 1232.81 121.316C1243.32 110.197 1255.51 101.515 1269.37 95.2705C1283.24 89.0257 1298.02 85.9034 1313.71 85.9034C1334.73 85.9034 1353.85 91.3104 1371.07 102.124C1388.44 112.939 1402.22 127.484 1412.43 145.762C1422.79 164.039 1427.97 184.296 1427.97 206.534C1427.97 223.135 1425 238.671 1419.06 253.141C1413.12 267.61 1404.89 280.404 1394.38 291.523C1384.02 302.489 1371.91 311.095 1358.04 317.34C1344.33 323.585 1329.55 326.707 1313.71 326.707ZM1313.71 258.167C1322.39 258.167 1330.16 255.806 1337.02 251.085C1344.03 246.363 1349.51 240.118 1353.47 232.35C1357.43 224.43 1359.41 215.825 1359.41 206.534C1359.41 196.938 1357.28 188.18 1353.02 180.26C1348.9 172.34 1343.34 166.095 1336.33 161.526C1329.48 156.804 1321.94 154.443 1313.71 154.443C1305.18 154.443 1297.41 156.88 1290.4 161.754C1283.54 166.476 1278.06 172.797 1273.95 180.717C1269.98 188.637 1268 197.243 1268 206.534C1268 216.282 1270.06 225.039 1274.17 232.807C1278.44 240.575 1284 246.744 1290.86 251.313C1297.86 255.882 1305.48 258.167 1313.71 258.167Z" fill="#00A878"/>
<path d="M1578.71 320.767L1640.87 0.913854H1699.37L1771.13 189.627L1842.89 0.913854H1901.39L1963.55 320.767H1893.62L1860.26 148.046L1794.9 320.767H1747.36L1682 148.046L1648.64 320.767H1578.71Z" fill="#00A878"/>
<path d="M2155.21 92.3004H2223.77V320.767H2154.98L2151.79 300.205C2146.15 308.125 2138.99 314.522 2130.3 319.396C2121.77 324.27 2111.79 326.707 2100.37 326.707C2083.3 326.707 2067.31 323.508 2052.38 317.111C2037.6 310.714 2024.57 301.88 2013.3 290.609C2002.02 279.186 1993.19 266.087 1986.79 251.313C1980.54 236.387 1977.42 220.394 1977.42 203.335C1977.42 187.038 1980.39 171.807 1986.33 157.642C1992.27 143.477 2000.58 131.064 2011.24 120.402C2022.06 109.588 2034.47 101.134 2048.49 95.042C2062.66 88.9496 2077.82 85.9034 2093.97 85.9034C2107.07 85.9034 2118.95 88.645 2129.62 94.1281C2140.43 99.459 2150.03 106.161 2158.41 114.233L2155.21 92.3004ZM2098.54 260.909C2107.98 260.909 2116.59 258.472 2124.36 253.598C2132.13 248.724 2138.3 242.174 2142.87 233.95C2147.44 225.725 2149.73 216.586 2149.73 206.534C2149.73 196.481 2147.44 187.342 2142.87 179.118C2138.3 170.893 2132.13 164.343 2124.36 159.47C2116.59 154.596 2107.98 152.159 2098.54 152.159C2089.09 152.159 2080.48 154.596 2072.71 159.47C2065.1 164.343 2059 170.893 2054.43 179.118C2050.01 187.342 2047.81 196.481 2047.81 206.534C2047.81 216.586 2050.09 225.725 2054.66 233.95C2059.23 242.174 2065.33 248.724 2072.94 253.598C2080.71 258.472 2089.24 260.909 2098.54 260.909Z" fill="#00A878"/>
<path d="M2338.21 435H2269.65V92.3004H2338.21V113.776C2345.37 105.704 2353.67 99.1544 2363.12 94.1281C2372.56 88.9496 2383.45 86.3603 2395.79 86.3603C2412.55 86.3603 2428.17 89.4827 2442.64 95.7274C2457.12 101.972 2469.84 110.654 2480.81 121.773C2491.93 132.739 2500.54 145.457 2506.63 159.926C2512.88 174.396 2516 189.932 2516 206.534C2516 223.135 2512.88 238.747 2506.63 253.369C2500.54 267.991 2491.93 280.861 2480.81 291.98C2469.84 302.946 2457.12 311.552 2442.64 317.797C2428.17 324.041 2412.55 327.164 2395.79 327.164C2383.45 327.164 2372.56 324.575 2363.12 319.396C2353.67 314.217 2345.37 307.668 2338.21 299.748V435ZM2394.88 152.159C2385.59 152.159 2377.06 154.672 2369.29 159.698C2361.67 164.572 2355.57 171.121 2351 179.346C2346.43 187.571 2344.15 196.633 2344.15 206.534C2344.15 216.586 2346.43 225.725 2351 233.95C2355.57 242.174 2361.67 248.724 2369.29 253.598C2377.06 258.472 2385.59 260.909 2394.88 260.909C2404.33 260.909 2412.93 258.472 2420.7 253.598C2428.47 248.724 2434.64 242.174 2439.21 233.95C2443.79 225.725 2446.07 216.586 2446.07 206.534C2446.07 196.633 2443.79 187.571 2439.21 179.346C2434.64 171.121 2428.47 164.572 2420.7 159.698C2412.93 154.672 2404.33 152.159 2394.88 152.159Z" fill="#00A878"/>
</svg>
